<mxfile host="app.diagrams.net" modified="2024-04-26T14:44:02.244Z" agent="Mozilla/5.0 (Macintosh; Intel Mac OS X 10_15_7) AppleWebKit/537.36 (KHTML, like Gecko) Chrome/124.0.0.0 Safari/537.36" version="24.3.0" etag="GC2ea_GkdlB1AogAvWqx" type="github">
  <diagram name="第 1 页" id="9VXdnUfw5M8_IHMdyXFW">
    <mxGraphModel>
      <root>
        <mxCell id="0" />
        <mxCell id="1" parent="0" />
      </root>
    </mxGraphModel>
  </diagram>
</mxfile>
